<svg width="53" height="32" viewBox="0 0 53 32" fill="none" xmlns="http://www.w3.org/2000/svg">
<path d="M37.2068 0.504883C41.273 0.537299 45.1624 2.18349 48.0271 5.08594C50.8919 7.98848 52.4996 11.9122 52.4998 16.002C52.4998 20.0919 50.892 24.0163 48.0271 26.9189C45.1624 29.8214 41.2729 31.4666 37.2068 31.499C33.4077 31.5042 29.7457 30.0716 26.95 27.4844L26.8367 27.3799C25.2967 25.9458 24.0629 24.2112 23.2126 22.2803C22.342 20.303 21.8923 18.1644 21.8923 16.002C21.8923 13.8395 22.342 11.7009 23.2126 9.72363C24.0832 7.74647 25.3552 5.97406 26.947 4.52051L26.95 4.51855C29.7459 1.93192 33.4079 0.499047 37.2068 0.504883Z" fill="#E99F2B" stroke="#A4A4A3"/>
<mask id="path-2-inside-1_1_1594" fill="white">
<path fill-rule="evenodd" clip-rule="evenodd" d="M50.9258 24.9127C50.9256 24.8479 50.938 24.7837 50.9626 24.7238C50.9872 24.6638 51.0233 24.6094 51.0689 24.5635C51.1145 24.5177 51.1686 24.4814 51.2282 24.4568C51.2879 24.4321 51.3518 24.4195 51.4162 24.4197C51.4828 24.4166 51.5494 24.4271 51.6118 24.4504C51.6743 24.4737 51.7315 24.5094 51.78 24.5554C51.8284 24.6014 51.8672 24.6568 51.8939 24.7182C51.9206 24.7796 51.9347 24.8457 51.9355 24.9127C51.9378 24.9819 51.926 25.0509 51.9008 25.1152C51.8755 25.1796 51.8373 25.2381 51.7886 25.287C51.7399 25.336 51.6818 25.3744 51.6177 25.3998C51.5536 25.4251 51.4851 25.437 51.4162 25.4347C51.3496 25.4339 51.2838 25.4197 51.2227 25.3928C51.1616 25.366 51.1066 25.327 51.0608 25.2783C51.0151 25.2296 50.9795 25.1722 50.9563 25.1093C50.9331 25.0465 50.9228 24.9797 50.9258 24.9127V24.9127ZM51.4162 25.3259C51.5242 25.3231 51.6269 25.2786 51.7031 25.2016C51.7793 25.1247 51.823 25.0212 51.8253 24.9127C51.8214 24.8074 51.7762 24.7078 51.6996 24.6358C51.623 24.5638 51.5211 24.5253 51.4162 24.5285C51.3156 24.5308 51.2197 24.572 51.1485 24.6436C51.0773 24.7151 51.0363 24.8115 51.034 24.9127C51.0354 25.017 51.0753 25.117 51.1459 25.1934C51.2165 25.2698 51.3129 25.317 51.4162 25.3259V25.3259ZM51.3616 25.1612H51.2534V24.6931H51.4431C51.4818 24.6887 51.5208 24.6983 51.5532 24.7201C51.6069 24.7471 51.6069 24.776 51.6069 24.8309C51.6069 24.8857 51.5801 24.9417 51.5255 24.9417L51.6357 25.1612H51.4987L51.4431 24.9686H51.3616V24.8848H51.4689C51.4957 24.8848 51.4957 24.8578 51.4957 24.8309C51.4957 24.8039 51.4957 24.804 51.4689 24.777H51.3587L51.3616 25.1612Z"/>
</mask>
<path fill-rule="evenodd" clip-rule="evenodd" d="M50.9258 24.9127C50.9256 24.8479 50.938 24.7837 50.9626 24.7238C50.9872 24.6638 51.0233 24.6094 51.0689 24.5635C51.1145 24.5177 51.1686 24.4814 51.2282 24.4568C51.2879 24.4321 51.3518 24.4195 51.4162 24.4197C51.4828 24.4166 51.5494 24.4271 51.6118 24.4504C51.6743 24.4737 51.7315 24.5094 51.78 24.5554C51.8284 24.6014 51.8672 24.6568 51.8939 24.7182C51.9206 24.7796 51.9347 24.8457 51.9355 24.9127C51.9378 24.9819 51.926 25.0509 51.9008 25.1152C51.8755 25.1796 51.8373 25.2381 51.7886 25.287C51.7399 25.336 51.6818 25.3744 51.6177 25.3998C51.5536 25.4251 51.4851 25.437 51.4162 25.4347C51.3496 25.4339 51.2838 25.4197 51.2227 25.3928C51.1616 25.366 51.1066 25.327 51.0608 25.2783C51.0151 25.2296 50.9795 25.1722 50.9563 25.1093C50.9331 25.0465 50.9228 24.9797 50.9258 24.9127V24.9127ZM51.4162 25.3259C51.5242 25.3231 51.6269 25.2786 51.7031 25.2016C51.7793 25.1247 51.823 25.0212 51.8253 24.9127C51.8214 24.8074 51.7762 24.7078 51.6996 24.6358C51.623 24.5638 51.5211 24.5253 51.4162 24.5285C51.3156 24.5308 51.2197 24.572 51.1485 24.6436C51.0773 24.7151 51.0363 24.8115 51.034 24.9127C51.0354 25.017 51.0753 25.117 51.1459 25.1934C51.2165 25.2698 51.3129 25.317 51.4162 25.3259V25.3259ZM51.3616 25.1612H51.2534V24.6931H51.4431C51.4818 24.6887 51.5208 24.6983 51.5532 24.7201C51.6069 24.7471 51.6069 24.776 51.6069 24.8309C51.6069 24.8857 51.5801 24.9417 51.5255 24.9417L51.6357 25.1612H51.4987L51.4431 24.9686H51.3616V24.8848H51.4689C51.4957 24.8848 51.4957 24.8578 51.4957 24.8309C51.4957 24.8039 51.4957 24.804 51.4689 24.777H51.3587L51.3616 25.1612Z" fill="#E99F2B"/>
<path d="M51.4162 24.4197L51.4121 25.4197L51.4374 25.4198L51.4625 25.4186L51.4162 24.4197ZM51.9355 24.9127L50.9355 24.9236L50.9357 24.9352L50.9361 24.9467L51.9355 24.9127ZM51.6177 25.3998L51.9862 26.3294L51.6177 25.3998ZM51.4162 25.4347L51.4506 24.4352L51.4389 24.4348L51.4272 24.4347L51.4162 25.4347ZM51.2227 25.3928L51.6253 24.4774L51.2227 25.3928ZM51.8253 24.9127L52.8251 24.9336L52.8257 24.9047L52.8246 24.8759L51.8253 24.9127ZM51.4162 24.5285L51.4389 25.5283L51.4471 25.528L51.4162 24.5285ZM51.034 24.9127L50.0343 24.8903L50.0339 24.9079L50.0341 24.9256L51.034 24.9127ZM51.3616 25.1612V26.1612H52.3694L52.3616 25.1535L51.3616 25.1612ZM51.2534 25.1612H50.2534V26.1612H51.2534V25.1612ZM51.2534 24.6931V23.6931H50.2534V24.6931H51.2534ZM51.4431 24.6931V25.6931H51.4997L51.5561 25.6867L51.4431 24.6931ZM51.5532 24.7201L50.995 25.5498L51.0476 25.5852L51.1042 25.6136L51.5532 24.7201ZM51.5255 24.9417V23.9417H49.9048L50.6317 25.3902L51.5255 24.9417ZM51.6357 25.1612V26.1612H53.2563L52.5294 24.7127L51.6357 25.1612ZM51.4987 25.1612L50.5379 25.4385L50.7464 26.1612H51.4987V25.1612ZM51.4431 24.9686L52.4039 24.6913L52.1953 23.9686H51.4431V24.9686ZM51.3616 24.9686H50.3616V25.9686H51.3616V24.9686ZM51.3616 24.8848V23.8848H50.3616V24.8848H51.3616ZM51.4689 24.777L52.1778 24.0717L51.8846 23.777H51.4689V24.777ZM51.3587 24.777V23.777H50.3509L50.3587 24.7847L51.3587 24.777ZM50.9258 24.9127L51.9258 24.9087C51.9261 24.975 51.9133 25.041 51.888 25.1029L50.9626 24.7238L50.0373 24.3447C49.9628 24.5264 49.925 24.7208 49.9258 24.9168L50.9258 24.9127ZM50.9626 24.7238L51.888 25.1029C51.8627 25.1646 51.8254 25.221 51.7778 25.2688L51.0689 24.5635L50.3599 23.8583C50.2212 23.9977 50.1116 24.1631 50.0373 24.3447L50.9626 24.7238ZM51.0689 24.5635L51.7778 25.2688C51.7301 25.3167 51.6733 25.3548 51.6107 25.3807L51.2282 24.4568L50.8458 23.5328C50.6639 23.6081 50.4988 23.7187 50.3599 23.8583L51.0689 24.5635ZM51.2282 24.4568L51.6107 25.3807C51.5483 25.4065 51.4809 25.42 51.4121 25.4197L51.4162 24.4197L51.4203 23.4197C51.2227 23.4189 51.0274 23.4576 50.8458 23.5328L51.2282 24.4568ZM51.4162 24.4197L51.4625 25.4186C51.3938 25.4218 51.3257 25.411 51.2623 25.3873L51.6118 24.4504L51.9614 23.5135C51.773 23.4432 51.5718 23.4114 51.3699 23.4208L51.4162 24.4197ZM51.6118 24.4504L51.2623 25.3873C51.1988 25.3636 51.1406 25.3273 51.0914 25.2806L51.78 24.5554L52.4685 23.8302C52.3224 23.6915 52.1499 23.5838 51.9614 23.5135L51.6118 24.4504ZM51.78 24.5554L51.0914 25.2806C51.0424 25.2341 51.0036 25.1785 50.977 25.1173L51.8939 24.7182L52.8108 24.3191C52.7307 24.1351 52.6144 23.9688 52.4685 23.8302L51.78 24.5554ZM51.8939 24.7182L50.977 25.1173C50.9503 25.056 50.9363 24.9902 50.9355 24.9236L51.9355 24.9127L52.9354 24.9018C52.9332 24.7012 52.8909 24.5031 52.8108 24.3191L51.8939 24.7182ZM51.9355 24.9127L50.9361 24.9467C50.9338 24.8798 50.9452 24.8129 50.9698 24.7501L51.9008 25.1152L52.8317 25.4804C52.9068 25.2889 52.9419 25.084 52.9349 24.8787L51.9355 24.9127ZM51.9008 25.1152L50.9698 24.7501C50.9946 24.6869 51.032 24.6296 51.0797 24.5817L51.7886 25.287L52.4976 25.9923C52.6426 25.8465 52.7564 25.6724 52.8317 25.4804L51.9008 25.1152ZM51.7886 25.287L51.0797 24.5817C51.1274 24.5338 51.185 24.4956 51.2492 24.4701L51.6177 25.3998L51.9862 26.3294C52.1785 26.2531 52.3525 26.1381 52.4976 25.9923L51.7886 25.287ZM51.6177 25.3998L51.2492 24.4701C51.3132 24.4448 51.3817 24.4329 51.4506 24.4352L51.4162 25.4347L51.3819 26.4341C51.5884 26.4412 51.7941 26.4055 51.9862 26.3294L51.6177 25.3998ZM51.4162 25.4347L51.4272 24.4347C51.496 24.4355 51.5633 24.4502 51.6253 24.4774L51.2227 25.3928L50.8201 26.3082C51.0042 26.3892 51.2032 26.4324 51.4052 26.4346L51.4162 25.4347ZM51.2227 25.3928L51.6253 24.4774C51.6877 24.5049 51.7435 24.5445 51.7896 24.5935L51.0608 25.2783L50.3321 25.9631C50.4697 26.1095 50.6356 26.227 50.8201 26.3082L51.2227 25.3928ZM51.0608 25.2783L51.7896 24.5935C51.8355 24.6424 51.8711 24.7 51.8944 24.763L50.9563 25.1093L50.0182 25.4557C50.0878 25.6443 50.1946 25.8168 50.3321 25.9631L51.0608 25.2783ZM50.9563 25.1093L51.8944 24.763C51.9176 24.8257 51.9278 24.8922 51.9248 24.9585L50.9258 24.9127L49.9269 24.8669C49.9177 25.0671 49.9486 25.2673 50.0182 25.4557L50.9563 25.1093ZM51.4162 25.3259L51.4422 26.3255C51.8089 26.316 52.1567 26.1648 52.4137 25.9052L51.7031 25.2016L50.9925 24.4981C51.0971 24.3923 51.2395 24.3301 51.3903 24.3262L51.4162 25.3259ZM51.7031 25.2016L52.4137 25.9052C52.6707 25.6457 52.8175 25.2976 52.8251 24.9336L51.8253 24.9127L50.8255 24.8919C50.8286 24.7448 50.8879 24.6037 50.9925 24.4981L51.7031 25.2016ZM51.8253 24.9127L52.8246 24.8759C52.8111 24.5083 52.6534 24.1598 52.3842 23.907L51.6996 24.6358L51.0149 25.3647C50.899 25.2558 50.8317 25.1064 50.826 24.9496L51.8253 24.9127ZM51.6996 24.6358L52.3842 23.907C52.1148 23.6539 51.7558 23.5175 51.3854 23.529L51.4162 24.5285L51.4471 25.528C51.2864 25.533 51.1311 25.4738 51.0149 25.3647L51.6996 24.6358ZM51.4162 24.5285L51.3935 23.5288C51.0339 23.5369 50.6924 23.6842 50.4396 23.9383L51.1485 24.6436L51.8574 25.3488C51.747 25.4598 51.5973 25.5246 51.4389 25.5282L51.4162 24.5285ZM51.1485 24.6436L50.4396 23.9383C50.1869 24.1923 50.0423 24.5334 50.0343 24.8903L51.034 24.9127L52.0338 24.9352C52.0303 25.0897 51.9678 25.238 51.8574 25.3488L51.1485 24.6436ZM51.034 24.9127L50.0341 24.9256C50.0387 25.2765 50.1728 25.6141 50.4119 25.8725L51.1459 25.1934L51.8799 24.5143C51.9777 24.62 52.0321 24.7575 52.034 24.8998L51.034 24.9127ZM51.1459 25.1934L50.4119 25.8725C50.651 26.131 50.9783 26.2918 51.3304 26.3222L51.4162 25.3259L51.5021 24.3296C51.6475 24.3421 51.7821 24.4085 51.8799 24.5143L51.1459 25.1934ZM51.3616 25.1612V24.1612H51.2534V25.1612V26.1612H51.3616V25.1612ZM51.2534 25.1612H52.2534V24.6931H51.2534H50.2534V25.1612H51.2534ZM51.2534 24.6931V25.6931H51.4431V24.6931V23.6931H51.2534V24.6931ZM51.4431 24.6931L51.5561 25.6867C51.3576 25.7093 51.1588 25.66 50.995 25.5498L51.5532 24.7201L52.1115 23.8905C51.8829 23.7366 51.606 23.6682 51.3301 23.6995L51.4431 24.6931ZM51.5532 24.7201L51.1042 25.6136C51.057 25.5899 50.9732 25.542 50.8859 25.4569C50.7906 25.3639 50.7152 25.25 50.6667 25.1236C50.6224 25.0085 50.6122 24.9128 50.609 24.8713C50.6063 24.8359 50.6069 24.8065 50.6069 24.8309H51.6069H52.6069C52.6069 24.8278 52.6075 24.7741 52.6031 24.7171C52.5982 24.6539 52.5846 24.539 52.5337 24.4064C52.4085 24.0807 52.1663 23.909 52.0023 23.8266L51.5532 24.7201ZM51.6069 24.8309H50.6069C50.6069 24.7147 50.6321 24.5407 50.7479 24.3624C50.8829 24.1543 51.1532 23.9417 51.5255 23.9417V24.9417V25.9417C51.9524 25.9417 52.2633 25.7011 52.4254 25.4513C52.5683 25.2313 52.6069 25.002 52.6069 24.8309H51.6069ZM51.5255 24.9417L50.6317 25.3902L50.7419 25.6098L51.6357 25.1612L52.5294 24.7127L52.4192 24.4931L51.5255 24.9417ZM51.6357 25.1612V24.1612H51.4987V25.1612V26.1612H51.6357V25.1612ZM51.4987 25.1612L52.4594 24.884L52.4039 24.6913L51.4431 24.9686L50.4823 25.2458L50.5379 25.4385L51.4987 25.1612ZM51.4431 24.9686V23.9686H51.3616V24.9686V25.9686H51.4431V24.9686ZM51.3616 24.9686H52.3616V24.8848H51.3616H50.3616V24.9686H51.3616ZM51.3616 24.8848V25.8848H51.4689V24.8848V23.8848H51.3616V24.8848ZM51.4689 24.8848V25.8848C51.6498 25.8848 51.8857 25.8358 52.1004 25.6678C52.306 25.507 52.3995 25.3093 52.4415 25.1827C52.4816 25.0617 52.4902 24.9598 52.4931 24.9169C52.4948 24.8912 52.4953 24.8699 52.4955 24.8568C52.4957 24.8442 52.4957 24.8329 52.4957 24.8309H51.4957H50.4957C50.4957 24.8446 50.4953 24.8171 50.4975 24.7844C50.4995 24.7541 50.5064 24.664 50.5432 24.5531C50.5818 24.4366 50.6703 24.2473 50.8683 24.0924C51.0755 23.9304 51.3014 23.8848 51.4689 23.8848V24.8848ZM51.4957 24.8309H52.4957C52.4957 24.8303 52.4957 24.8166 52.4954 24.8019C52.4951 24.7867 52.4942 24.7549 52.4903 24.7156C52.4811 24.6234 52.4561 24.4957 52.3873 24.3578C52.327 24.2369 52.2562 24.1559 52.229 24.1255C52.2135 24.1083 52.2002 24.0946 52.1936 24.0877C52.1868 24.0808 52.18 24.074 52.1778 24.0717L51.4689 24.777L50.7599 25.4823C50.7743 25.4968 50.7575 25.4803 50.7397 25.4605C50.7201 25.4386 50.6543 25.3643 50.5974 25.2501C50.532 25.1189 50.5086 24.9979 50.5002 24.9141C50.4946 24.8577 50.4957 24.8057 50.4957 24.8309H51.4957ZM51.4689 24.777V23.777H51.3587V24.777V25.777H51.4689V24.777ZM51.3587 24.777L50.3587 24.7847L50.3617 25.169L51.3616 25.1612L52.3616 25.1535L52.3586 24.7693L51.3587 24.777Z" fill="#A4A4A3" mask="url(#path-2-inside-1_1_1594)"/>
<path d="M9.67285 1.82812C12.4017 0.612886 15.4227 0.21989 18.3691 0.697266C21.1384 1.14594 23.7297 2.34586 25.8672 4.16211C25.4224 4.59604 25.0021 5.05472 24.6094 5.53711L23.9453 6.35254H27.9561C28.1335 6.57259 28.3045 6.79759 28.4678 7.02832H23.5127L23.3672 7.27246C23.0298 7.83956 22.7214 8.42233 22.4424 9.01953L22.1104 9.73145H29.9971C30.0949 9.96344 30.1873 10.1976 30.2754 10.4336H21.8457L21.7354 10.7822C21.555 11.3493 21.4046 11.9256 21.2852 12.5088L21.1621 13.1094H31.0293C31.0832 13.3966 31.1342 13.6732 31.1729 13.9512L31.2217 14.3594C31.2745 14.8902 31.3008 15.4502 31.3008 16.0117V16.0137C31.3054 17.1124 31.1902 18.2088 30.957 19.2822C30.8607 19.7233 30.7456 20.1601 30.6143 20.5918H21.5068L21.7383 21.2559C21.9427 21.8431 22.178 22.4189 22.4424 22.9814L22.5771 23.2695H29.5215C29.395 23.5079 29.2611 23.7422 29.1191 23.9717H22.8926L23.3721 24.7373C23.7511 25.3416 24.1624 25.925 24.6045 26.4844L24.7549 26.6738H27.0947C26.8315 26.9527 26.5576 27.2219 26.2734 27.4795L26.2725 27.4805C24.0613 29.4964 21.3156 30.8234 18.3691 31.3008C15.4227 31.7782 12.4017 31.3852 9.67285 30.1699C6.94385 28.9546 4.62351 26.9686 2.99512 24.4531C1.36679 21.9376 0.5 19.0006 0.5 15.999C0.500002 12.9974 1.36678 10.0604 2.99512 7.54492C4.62351 5.0294 6.94385 3.04349 9.67285 1.82812Z" fill="#BF0C24" stroke="#A4A4A3"/>
<mask id="path-5-inside-2_1_1594" fill="white">
<path fill-rule="evenodd" clip-rule="evenodd" d="M50.9257 19.7212C50.9229 19.6544 50.9335 19.5878 50.9568 19.5252C50.9801 19.4626 51.0157 19.4054 51.0615 19.3569C51.1072 19.3084 51.1622 19.2697 51.2231 19.2429C51.284 19.2162 51.3497 19.202 51.4162 19.2013C51.4848 19.1988 51.5533 19.2105 51.6173 19.2357C51.6813 19.261 51.7394 19.2991 51.7881 19.3479C51.8368 19.3966 51.875 19.4549 51.9004 19.5191C51.9257 19.5834 51.9376 19.6521 51.9354 19.7212C51.9355 19.7898 51.9222 19.8577 51.8961 19.9211C51.8701 19.9845 51.8318 20.0421 51.7836 20.0905C51.7354 20.139 51.6781 20.1775 51.615 20.2037C51.552 20.2298 51.4844 20.2433 51.4162 20.2431C51.2829 20.2374 51.1571 20.1797 51.0656 20.0823C50.974 19.9848 50.9238 19.8552 50.9257 19.7212V19.7212ZM51.4162 20.1054C51.4687 20.1092 51.5214 20.1021 51.5711 20.0845C51.6207 20.0669 51.6662 20.0393 51.7048 20.0032C51.7433 19.9672 51.7741 19.9235 51.7951 19.875C51.8161 19.8265 51.827 19.7741 51.827 19.7212C51.827 19.6683 51.8161 19.6159 51.7951 19.5674C51.7741 19.5189 51.7433 19.4752 51.7048 19.4392C51.6662 19.4031 51.6207 19.3754 51.5711 19.3579C51.5214 19.3403 51.4687 19.3332 51.4162 19.337C51.3148 19.337 51.2176 19.3775 51.1459 19.4495C51.0742 19.5216 51.034 19.6193 51.034 19.7212C51.034 19.8231 51.0742 19.9208 51.1459 19.9928C51.2176 20.0649 51.3148 20.1054 51.4162 20.1054ZM51.3616 19.9408H51.2533V19.5017H51.5512C51.6048 19.5286 51.6048 19.5855 51.6048 19.6394C51.6009 19.663 51.5915 19.6853 51.5773 19.7046C51.5632 19.7238 51.5447 19.7394 51.5234 19.7501L51.6336 19.9427H51.4966L51.441 19.7781H51.3596V19.6943H51.4142C51.441 19.6943 51.4698 19.6942 51.4698 19.6673C51.4966 19.6673 51.4966 19.6403 51.4966 19.6124C51.4966 19.6053 51.4937 19.5984 51.4887 19.5933C51.4837 19.5883 51.4769 19.5855 51.4698 19.5855C51.4698 19.5565 51.441 19.5855 51.4142 19.5855H51.3596L51.3616 19.9408Z"/>
</mask>
<path fill-rule="evenodd" clip-rule="evenodd" d="M50.9257 19.7212C50.9229 19.6544 50.9335 19.5878 50.9568 19.5252C50.9801 19.4626 51.0157 19.4054 51.0615 19.3569C51.1072 19.3084 51.1622 19.2697 51.2231 19.2429C51.284 19.2162 51.3497 19.202 51.4162 19.2013C51.4848 19.1988 51.5533 19.2105 51.6173 19.2357C51.6813 19.261 51.7394 19.2991 51.7881 19.3479C51.8368 19.3966 51.875 19.4549 51.9004 19.5191C51.9257 19.5834 51.9376 19.6521 51.9354 19.7212C51.9355 19.7898 51.9222 19.8577 51.8961 19.9211C51.8701 19.9845 51.8318 20.0421 51.7836 20.0905C51.7354 20.139 51.6781 20.1775 51.615 20.2037C51.552 20.2298 51.4844 20.2433 51.4162 20.2431C51.2829 20.2374 51.1571 20.1797 51.0656 20.0823C50.974 19.9848 50.9238 19.8552 50.9257 19.7212V19.7212ZM51.4162 20.1054C51.4687 20.1092 51.5214 20.1021 51.5711 20.0845C51.6207 20.0669 51.6662 20.0393 51.7048 20.0032C51.7433 19.9672 51.7741 19.9235 51.7951 19.875C51.8161 19.8265 51.827 19.7741 51.827 19.7212C51.827 19.6683 51.8161 19.6159 51.7951 19.5674C51.7741 19.5189 51.7433 19.4752 51.7048 19.4392C51.6662 19.4031 51.6207 19.3754 51.5711 19.3579C51.5214 19.3403 51.4687 19.3332 51.4162 19.337C51.3148 19.337 51.2176 19.3775 51.1459 19.4495C51.0742 19.5216 51.034 19.6193 51.034 19.7212C51.034 19.8231 51.0742 19.9208 51.1459 19.9928C51.2176 20.0649 51.3148 20.1054 51.4162 20.1054ZM51.3616 19.9408H51.2533V19.5017H51.5512C51.6048 19.5286 51.6048 19.5855 51.6048 19.6394C51.6009 19.663 51.5915 19.6853 51.5773 19.7046C51.5632 19.7238 51.5447 19.7394 51.5234 19.7501L51.6336 19.9427H51.4966L51.441 19.7781H51.3596V19.6943H51.4142C51.441 19.6943 51.4698 19.6942 51.4698 19.6673C51.4966 19.6673 51.4966 19.6403 51.4966 19.6124C51.4966 19.6053 51.4937 19.5984 51.4887 19.5933C51.4837 19.5883 51.4769 19.5855 51.4698 19.5855C51.4698 19.5565 51.441 19.5855 51.4142 19.5855H51.3596L51.3616 19.9408Z" fill="white"/>
<path d="M51.4162 19.2013L51.4273 20.2012L51.4399 20.2011L51.4525 20.2006L51.4162 19.2013ZM51.9354 19.7212L50.9359 19.689L50.9354 19.7061L50.9354 19.7231L51.9354 19.7212ZM51.4162 20.2431L51.3734 21.2422L51.3938 21.2431L51.4142 21.2431L51.4162 20.2431ZM51.4162 20.1054L51.4885 19.108L51.4524 19.1054H51.4162V20.1054ZM51.827 19.7212L50.827 19.7212L51.827 19.7212ZM51.4162 19.337V20.337H51.4524L51.4885 20.3343L51.4162 19.337ZM51.3616 19.9408V20.9408H52.3671L52.3615 19.9352L51.3616 19.9408ZM51.2533 19.9408H50.2533V20.9408H51.2533V19.9408ZM51.2533 19.5017V18.5017H50.2533V19.5017H51.2533ZM51.5512 19.5017L52.0003 18.6082L51.7884 18.5017H51.5512V19.5017ZM51.6048 19.6394L52.5913 19.8029L52.6048 19.7217V19.6394H51.6048ZM51.5234 19.7501L51.0746 18.8565L50.1311 19.3303L50.6554 20.2467L51.5234 19.7501ZM51.6336 19.9427V20.9427H53.3578L52.5015 19.4461L51.6336 19.9427ZM51.4966 19.9427L50.5492 20.2628L50.7789 20.9427H51.4966V19.9427ZM51.441 19.7781L52.3884 19.458L52.1586 18.7781H51.441V19.7781ZM51.3596 19.7781H50.3596V20.7781H51.3596V19.7781ZM51.3596 19.6943V18.6943H50.3596V19.6943H51.3596ZM51.4698 19.6673V18.6673H50.4698V19.6673H51.4698ZM51.4698 19.5855H50.4698V20.5855H51.4698V19.5855ZM51.3596 19.5855V18.5855H50.354L50.3596 19.591L51.3596 19.5855ZM50.9257 19.7212L51.9249 19.6793C51.9276 19.7455 51.9172 19.8118 51.8939 19.8743L50.9568 19.5252L50.0197 19.176C49.9498 19.3637 49.9182 19.5633 49.9266 19.763L50.9257 19.7212ZM50.9568 19.5252L51.8939 19.8743C51.8706 19.9368 51.835 19.9942 51.7889 20.0431L51.0615 19.3569L50.334 18.6707C50.1965 18.8165 50.0897 18.9884 50.0197 19.176L50.9568 19.5252ZM51.0615 19.3569L51.7889 20.0431C51.7426 20.0921 51.6869 20.1315 51.6249 20.1587L51.2231 19.2429L50.8213 18.3272C50.6375 18.4078 50.4718 18.5247 50.334 18.6707L51.0615 19.3569ZM51.2231 19.2429L51.6249 20.1587C51.563 20.1858 51.4958 20.2004 51.4273 20.2012L51.4162 19.2013L51.405 18.2013C51.2036 18.2036 51.0051 18.2466 50.8213 18.3272L51.2231 19.2429ZM51.4162 19.2013L51.4525 20.2006C51.3831 20.2031 51.3144 20.1912 51.2506 20.1661L51.6173 19.2357L51.984 18.3054C51.7922 18.2298 51.5865 18.1944 51.3798 18.2019L51.4162 19.2013ZM51.6173 19.2357L51.2506 20.1661C51.1866 20.1409 51.1288 20.1028 51.0805 20.0545L51.7881 19.3479L52.4957 18.6412C52.3501 18.4954 52.1759 18.381 51.984 18.3054L51.6173 19.2357ZM51.7881 19.3479L51.0805 20.0545C51.0325 20.0064 50.995 19.9491 50.9701 19.8861L51.9004 19.5191L52.8306 19.1522C52.7551 18.9607 52.6411 18.7868 52.4957 18.6412L51.7881 19.3479ZM51.9004 19.5191L50.9701 19.8861C50.9453 19.8232 50.9337 19.7561 50.9359 19.689L51.9354 19.7212L52.9349 19.7534C52.9415 19.5481 52.9061 19.3435 52.8306 19.1522L51.9004 19.5191ZM51.9354 19.7212L50.9354 19.7231C50.9353 19.6607 50.9474 19.5989 50.9712 19.541L51.8961 19.9211L52.8211 20.3012C52.8969 20.1166 52.9358 19.9188 52.9354 19.7193L51.9354 19.7212ZM51.8961 19.9211L50.9712 19.541C50.995 19.4831 51.0301 19.4301 51.0747 19.3853L51.7836 20.0905L52.4925 20.7958C52.6336 20.654 52.7452 20.4859 52.8211 20.3012L51.8961 19.9211ZM51.7836 20.0905L51.0747 19.3853C51.1192 19.3405 51.1725 19.3046 51.2315 19.2801L51.615 20.2037L51.9985 21.1272C52.1836 21.0503 52.3515 20.9376 52.4925 20.7958L51.7836 20.0905ZM51.615 20.2037L51.2315 19.2801C51.2905 19.2556 51.3539 19.243 51.4181 19.2431L51.4162 20.2431L51.4142 21.2431C51.6149 21.2435 51.8134 21.204 51.9985 21.1272L51.615 20.2037ZM51.4162 20.2431L51.4589 19.244C51.5873 19.2495 51.7076 19.3052 51.7943 19.3975L51.0656 20.0823L50.3368 20.767C50.6067 21.0543 50.9785 21.2253 51.3734 21.2422L51.4162 20.2431ZM51.0656 20.0823L51.7943 19.3975C51.8809 19.4896 51.9274 19.6109 51.9256 19.7356L50.9257 19.7212L49.9258 19.7068C49.9202 20.0995 50.0671 20.48 50.3368 20.767L51.0656 20.0823ZM51.4162 20.1054L51.3438 21.1028C51.5342 21.1166 51.7252 21.0908 51.9049 21.0272L51.5711 20.0845L51.2373 19.1419C51.3176 19.1134 51.4032 19.1018 51.4885 19.108L51.4162 20.1054ZM51.5711 20.0845L51.9049 21.0272C52.0847 20.9635 52.249 20.8634 52.3879 20.7335L51.7048 20.0032L51.0217 19.2729C51.0834 19.2151 51.1567 19.1704 51.2373 19.1419L51.5711 20.0845ZM51.7048 20.0032L52.3879 20.7335C52.5267 20.6037 52.6372 20.4468 52.7127 20.2725L51.7951 19.875L50.8775 19.4775C50.9109 19.4003 50.96 19.3306 51.0217 19.2729L51.7048 20.0032ZM51.7951 19.875L52.7127 20.2725C52.7881 20.0984 52.827 19.9108 52.827 19.7212L51.827 19.7212L50.827 19.7212C50.827 19.6374 50.8441 19.5545 50.8775 19.4775L51.7951 19.875ZM51.827 19.7212L52.827 19.7212C52.827 19.5316 52.7881 19.3439 52.7127 19.1699L51.7951 19.5674L50.8775 19.9649C50.8441 19.8879 50.827 19.805 50.827 19.7212L51.827 19.7212ZM51.7951 19.5674L52.7127 19.1699C52.6372 18.9956 52.5267 18.8387 52.3879 18.7088L51.7048 19.4392L51.0217 20.1695C50.96 20.1118 50.9109 20.0421 50.8775 19.9649L51.7951 19.5674ZM51.7048 19.4392L52.3879 18.7088C52.249 18.579 52.0847 18.4789 51.9049 18.4152L51.5711 19.3579L51.2373 20.3005C51.1567 20.272 51.0834 20.2273 51.0217 20.1695L51.7048 19.4392ZM51.5711 19.3579L51.9049 18.4152C51.7252 18.3516 51.5342 18.3258 51.3438 18.3396L51.4162 19.337L51.4885 20.3343C51.4032 20.3405 51.3176 20.329 51.2373 20.3005L51.5711 19.3579ZM51.4162 19.337V18.337C51.0476 18.337 50.6956 18.4843 50.437 18.7443L51.1459 19.4495L51.8548 20.1548C51.7396 20.2707 51.5819 20.337 51.4162 20.337V19.337ZM51.1459 19.4495L50.437 18.7443C50.1784 19.0042 50.034 19.3557 50.034 19.7212H51.034H52.034C52.034 19.8829 51.9701 20.0389 51.8548 20.1548L51.1459 19.4495ZM51.034 19.7212H50.034C50.034 20.0867 50.1784 20.4382 50.437 20.6981L51.1459 19.9928L51.8548 19.2876C51.9701 19.4034 52.034 19.5595 52.034 19.7212H51.034ZM51.1459 19.9928L50.437 20.6981C50.6956 20.9581 51.0476 21.1054 51.4162 21.1054V20.1054V19.1054C51.5819 19.1054 51.7396 19.1717 51.8548 19.2876L51.1459 19.9928ZM51.3616 19.9408V18.9408H51.2533V19.9408V20.9408H51.3616V19.9408ZM51.2533 19.9408H52.2533V19.5017H51.2533H50.2533V19.9408H51.2533ZM51.2533 19.5017V20.5017H51.5512V19.5017V18.5017H51.2533V19.5017ZM51.5512 19.5017L51.1021 20.3952C50.9834 20.3355 50.8727 20.2466 50.7847 20.1303C50.6997 20.018 50.6564 19.9073 50.634 19.8259C50.5981 19.6955 50.6048 19.5802 50.6048 19.6394H51.6048H52.6048C52.6048 19.6316 52.6051 19.5863 52.602 19.5363C52.5987 19.4844 52.5904 19.3972 52.5622 19.295C52.4963 19.0555 52.3287 18.7733 52.0003 18.6082L51.5512 19.5017ZM51.6048 19.6394L50.6182 19.4759C50.6401 19.3442 50.6926 19.2197 50.7715 19.1124L51.5773 19.7046L52.3831 20.2967C52.4903 20.1509 52.5617 19.9818 52.5913 19.8029L51.6048 19.6394ZM51.5773 19.7046L50.7715 19.1124C50.8507 19.0046 50.9544 18.9168 51.0746 18.8565L51.5234 19.7501L51.9722 20.6438C52.1349 20.562 52.2756 20.443 52.3831 20.2967L51.5773 19.7046ZM51.5234 19.7501L50.6554 20.2467L50.7656 20.4393L51.6336 19.9427L52.5015 19.4461L52.3914 19.2535L51.5234 19.7501ZM51.6336 19.9427V18.9427H51.4966V19.9427V20.9427H51.6336V19.9427ZM51.4966 19.9427L52.444 19.6226L52.3884 19.458L51.441 19.7781L50.4936 20.0982L50.5492 20.2628L51.4966 19.9427ZM51.441 19.7781V18.7781H51.3596V19.7781V20.7781H51.441V19.7781ZM51.3596 19.7781H52.3596V19.6943H51.3596H50.3596V19.7781H51.3596ZM51.3596 19.6943V20.6943H51.4142V19.6943V18.6943H51.3596V19.6943ZM51.4142 19.6943V20.6943C51.4147 20.6943 51.4548 20.6946 51.4997 20.6917C51.5421 20.6889 51.6402 20.6806 51.757 20.6432C51.8766 20.605 52.0732 20.5176 52.2373 20.3179C52.4129 20.1043 52.4698 19.8623 52.4698 19.6673H51.4698H50.4698C50.4698 19.4857 50.5231 19.2538 50.6924 19.0478C50.8503 18.8557 51.0381 18.7734 51.1471 18.7385C51.2533 18.7045 51.3392 18.6979 51.3687 18.696C51.4006 18.6939 51.4271 18.6943 51.4142 18.6943V19.6943ZM51.4698 19.6673V20.6673C51.6505 20.6673 51.8874 20.6184 52.1031 20.449C52.3093 20.2869 52.4021 20.0879 52.4435 19.9618C52.483 19.8412 52.4913 19.7398 52.4941 19.6976C52.4957 19.6722 52.4962 19.6512 52.4964 19.6382C52.4966 19.6258 52.4966 19.6145 52.4966 19.6124H51.4966H50.4966C50.4966 19.6265 50.4962 19.5998 50.4983 19.5679C50.5002 19.5387 50.5068 19.4492 50.543 19.3388C50.581 19.2229 50.6688 19.0324 50.8675 18.8763C51.0756 18.7128 51.3025 18.6673 51.4698 18.6673V19.6673ZM51.4966 19.6124H52.4966C52.4966 19.3397 52.3882 19.0796 52.1977 18.8881L51.4887 19.5933L50.7798 20.2986C50.5993 20.1172 50.4966 19.8708 50.4966 19.6124H51.4966ZM51.4887 19.5933L52.1977 18.8881C52.0037 18.6931 51.7412 18.5855 51.4698 18.5855V19.5855V20.5855C51.2126 20.5855 50.9637 20.4835 50.7798 20.2986L51.4887 19.5933ZM51.4698 19.5855H52.4698C52.4698 19.5142 52.4632 19.3614 52.389 19.1865C52.3021 18.9816 52.131 18.7726 51.8638 18.6563C51.6309 18.5549 51.4246 18.5688 51.3294 18.5812C51.2296 18.5943 51.1539 18.6197 51.1276 18.6287C51.1106 18.6346 51.0969 18.6397 51.0892 18.6427C51.082 18.6455 51.0754 18.6481 51.0752 18.6482C51.0701 18.6502 51.0853 18.644 51.1042 18.6374C51.1345 18.6268 51.2532 18.5855 51.4142 18.5855V19.5855V20.5855C51.5886 20.5855 51.7209 20.5405 51.7641 20.5254C51.7896 20.5165 51.811 20.5079 51.8119 20.5075C51.8211 20.5039 51.8005 20.5123 51.7764 20.5205C51.7554 20.5278 51.6846 20.5518 51.5891 20.5643C51.4982 20.5762 51.2957 20.5902 51.0659 20.4902C50.8018 20.3753 50.6332 20.1688 50.548 19.9678C50.4754 19.7969 50.4698 19.6495 50.4698 19.5855H51.4698ZM51.4142 19.5855V18.5855H51.3596V19.5855V20.5855H51.4142V19.5855ZM51.3596 19.5855L50.3596 19.591L50.3616 19.9463L51.3616 19.9408L52.3615 19.9352L52.3596 19.5799L51.3596 19.5855Z" fill="#A4A4A3" mask="url(#path-5-inside-2_1_1594)"/>
<mask id="path-7-inside-3_1_1594" fill="white">
<path fill-rule="evenodd" clip-rule="evenodd" d="M21.2274 20.6254C20.8105 20.7544 20.3786 20.8282 19.9427 20.8449C19.1217 20.8449 18.6312 20.325 18.6312 19.3889C18.6372 19.1885 18.6551 18.9885 18.6849 18.7901L18.7951 18.1595L18.8765 17.6376L19.6141 13.1338H21.2532L21.0616 14.1218H22.1011L21.8538 15.7694H20.8154L20.3785 18.4639C20.3598 18.5538 20.3508 18.6454 20.3517 18.7373C20.3517 19.0945 20.5155 19.2362 20.9256 19.2362C21.1 19.2335 21.2738 19.2147 21.4448 19.1803L21.2274 20.6254ZM26.5279 20.5715C25.9588 20.734 25.3702 20.8169 24.7786 20.818C24.3832 20.8665 23.9821 20.8239 23.6055 20.6935C23.229 20.563 22.8869 20.3482 22.6052 20.0652C22.3234 19.7822 22.1095 19.4385 21.9795 19.0601C21.8495 18.6817 21.8069 18.2784 21.8548 17.881C21.8548 15.6007 23.1117 13.9521 24.86 13.9521C25.1731 13.9347 25.4862 13.9852 25.7781 14.1002C26.07 14.2152 26.3339 14.3921 26.5517 14.6187C26.7696 14.8454 26.9364 15.1166 27.0407 15.4138C27.145 15.711 27.1844 16.0273 27.1563 16.3412C27.15 16.8867 27.0858 17.4301 26.9647 17.9619H23.5485C23.5292 18.0334 23.5202 18.1073 23.5217 18.1814C23.5217 18.9498 24.041 19.3341 25.0238 19.3341C25.639 19.3327 26.2461 19.1922 26.7999 18.9229L26.5279 20.5715ZM25.5162 16.6446V16.3143C25.5304 16.2015 25.5191 16.0869 25.4834 15.979C25.4477 15.8712 25.3883 15.7728 25.3097 15.691C25.2311 15.6092 25.1353 15.5462 25.0293 15.5066C24.9233 15.4669 24.8098 15.4518 24.6972 15.462C24.1511 15.462 23.7679 15.8732 23.6051 16.6446H25.5162ZM8.11366 20.7092H6.41798L7.40282 14.474L5.1899 20.7092H4.01545L3.87844 14.502L2.84 20.7092H1.1731L2.51136 12.6069H4.9983L5.05193 17.6056L6.7188 12.6069H9.45096L8.11366 20.7092ZM12.2387 17.7703C12.1304 17.7499 12.0203 17.7408 11.9101 17.7433C10.9272 17.7433 10.4348 18.1276 10.4348 18.7313C10.4258 18.8191 10.4354 18.9078 10.4631 18.9916C10.4908 19.0754 10.5359 19.1524 10.5954 19.2173C10.655 19.2822 10.7276 19.3337 10.8084 19.3682C10.8892 19.4028 10.9764 19.4198 11.0642 19.4179C11.8833 19.4209 12.2109 18.7293 12.2387 17.7723V17.7703ZM13.6058 20.7092H12.1305L12.1573 20.0216C11.9507 20.2998 11.676 20.5196 11.3599 20.6595C11.0438 20.7994 10.6971 20.8547 10.3534 20.82C10.1337 20.804 9.91938 20.7443 9.72297 20.6441C9.52656 20.5438 9.35202 20.4052 9.20955 20.2364C9.06708 20.0675 8.95956 19.8718 8.89328 19.6607C8.82699 19.4495 8.80326 19.2272 8.8235 19.0067C8.82675 18.7182 8.87226 18.4317 8.95854 18.1564C9.23255 17.1395 10.2422 16.5089 11.8009 16.4809C11.9925 16.4809 12.2913 16.4809 12.5653 16.5079C12.6056 16.3651 12.624 16.2171 12.6199 16.0688C12.6199 15.6277 12.2645 15.4899 11.4733 15.4899C10.9907 15.4875 10.5108 15.5623 10.0516 15.7115L9.80638 15.7664L9.69616 15.7933L9.94339 14.3104C10.5853 14.086 11.2585 13.9655 11.9379 13.9531C13.4112 13.9531 14.2054 14.6407 14.2054 15.9041C14.2224 16.336 14.1945 16.7684 14.122 17.1944L13.7398 19.5546L13.6862 19.9677L13.6594 20.298L13.6326 20.5176L13.6058 20.7092ZM34.7779 14.1717C35.3165 14.1903 35.8422 14.3418 36.3088 14.6128L36.6066 12.8544C36.4642 12.7914 36.3184 12.7364 36.1698 12.6897L35.4858 12.4971C34.5967 12.3308 33.6791 12.4168 32.836 12.7456C32.462 12.9921 32.1219 13.2871 31.8244 13.6228L31.606 13.5679L29.8587 14.8044L29.9401 14.1168H28.1362L27.0719 20.7032H28.7924L29.4199 17.1625C29.4199 17.1625 29.6671 16.6635 29.7753 16.5029C29.8812 16.3522 30.0267 16.234 30.1955 16.1614C30.3642 16.0888 30.5497 16.0647 30.7313 16.0917H30.8683C30.8113 16.5097 30.7841 16.9312 30.7869 17.3531C30.7869 19.4957 31.9882 20.8459 33.8457 20.8459C34.3547 20.8427 34.8609 20.7689 35.3498 20.6264L35.6476 18.7592C35.2089 19.025 34.7109 19.176 34.1991 19.1983C33.1895 19.1983 32.5888 18.4299 32.5888 17.2224C32.5918 15.4361 33.4933 14.1737 34.7779 14.1737V14.1717ZM49.2865 12.6069L48.9043 14.9131C48.7522 14.6309 48.5271 14.3952 48.2527 14.2309C47.9784 14.0667 47.6649 13.98 47.3456 13.98C46.8653 13.9946 46.3985 14.1437 45.9979 14.4104C45.5973 14.6772 45.2788 15.051 45.0781 15.4899V15.463L43.986 14.8054L44.0962 14.1178H42.2655L41.2271 20.7102H42.9208L43.4946 17.1675C43.4946 17.1675 43.9334 16.6685 44.0406 16.5079C44.1323 16.3894 44.2478 16.2916 44.3795 16.2207C44.5111 16.1499 44.6561 16.1077 44.8051 16.0967C44.5993 16.7254 44.4987 17.384 44.5072 18.0457C44.5072 19.6933 45.3531 20.7921 46.6099 20.7921C46.9135 20.7988 47.2145 20.7354 47.4899 20.6068C47.7653 20.4783 48.0077 20.288 48.1984 20.0506L48.115 20.7102H49.7273L51.0388 12.6079L49.2865 12.6069ZM47.1818 19.1424C46.608 19.1424 46.3092 18.7033 46.3092 17.8521C46.3092 16.5607 46.8552 15.6277 47.6474 15.6277C48.2431 15.6277 48.5489 16.0957 48.5489 16.918C48.5479 18.2383 48.0018 19.1454 47.1808 19.1454L47.1818 19.1424ZM39.2871 17.7703C39.1788 17.7499 39.0687 17.7408 38.9585 17.7433C37.9737 17.7433 37.4833 18.1276 37.4833 18.7313C37.4741 18.819 37.4836 18.9076 37.5111 18.9913C37.5386 19.075 37.5836 19.1519 37.6429 19.2169C37.7022 19.2818 37.7746 19.3333 37.8553 19.3679C37.9359 19.4026 38.023 19.4196 38.1107 19.4179C38.9317 19.4209 39.2594 18.7293 39.2871 17.7723V17.7703ZM40.6522 20.7092H39.1501L39.2077 20.0266C39.0015 20.3047 38.7271 20.5243 38.4113 20.6642C38.0956 20.8041 37.7492 20.8595 37.4058 20.825C37.1814 20.8157 36.9612 20.7608 36.7584 20.6636C36.5557 20.5664 36.3746 20.429 36.2262 20.2595C36.0777 20.0901 35.965 19.8921 35.8947 19.6777C35.8245 19.4632 35.7981 19.2366 35.8174 19.0117C35.8174 17.4469 36.9918 16.4859 38.8494 16.4859C39.0955 16.4823 39.3417 16.4913 39.587 16.5129C39.6346 16.371 39.6626 16.2233 39.6704 16.0738C39.6704 15.6327 39.315 15.4969 38.4959 15.4969C38.0136 15.496 37.534 15.5701 37.0743 15.7165L36.8558 15.7714L36.7456 15.7983L36.9908 14.3154C37.6328 14.0914 38.3059 13.9708 38.9854 13.9581C40.4606 13.9581 41.2251 14.6457 41.2251 15.9091C41.2573 16.3409 41.23 16.7752 41.1437 17.1994L40.7883 19.5616L40.7346 19.9727L40.679 20.303L40.6522 20.5226V20.7152V20.7092ZM17.1838 15.5199C17.6138 15.5222 18.0431 15.5586 18.4674 15.6287L18.7126 14.0908C18.2222 14.037 17.566 13.9531 17.1828 13.9531C15.2707 13.9531 14.6412 14.998 14.6412 16.2045C14.6348 16.605 14.756 16.997 14.9871 17.3233C15.2183 17.6496 15.5473 17.8929 15.9259 18.0178C16.6099 18.3481 16.7201 18.402 16.7201 18.7054C16.7201 19.1165 16.3667 19.363 15.7105 19.363C15.1791 19.3636 14.6516 19.271 14.1518 19.0895L13.9602 20.5994L13.987 20.6264L14.3156 20.6813C14.4604 20.7167 14.6068 20.7447 14.7544 20.7651C15.1634 20.792 15.5189 20.819 15.7373 20.819C17.6494 20.819 18.4426 20.0775 18.4426 18.6235C18.4547 18.2187 18.336 17.8209 18.1045 17.4896C17.8729 17.1583 17.5408 16.9112 17.158 16.7853C16.4203 16.455 16.3369 16.4011 16.3369 16.0977C16.3369 15.7943 16.6645 15.5209 17.1838 15.5209V15.5199Z"/>
</mask>
<path fill-rule="evenodd" clip-rule="evenodd" d="M21.2274 20.6254C20.8105 20.7544 20.3786 20.8282 19.9427 20.8449C19.1217 20.8449 18.6312 20.325 18.6312 19.3889C18.6372 19.1885 18.6551 18.9885 18.6849 18.7901L18.7951 18.1595L18.8765 17.6376L19.6141 13.1338H21.2532L21.0616 14.1218H22.1011L21.8538 15.7694H20.8154L20.3785 18.4639C20.3598 18.5538 20.3508 18.6454 20.3517 18.7373C20.3517 19.0945 20.5155 19.2362 20.9256 19.2362C21.1 19.2335 21.2738 19.2147 21.4448 19.1803L21.2274 20.6254ZM26.5279 20.5715C25.9588 20.734 25.3702 20.8169 24.7786 20.818C24.3832 20.8665 23.9821 20.8239 23.6055 20.6935C23.229 20.563 22.8869 20.3482 22.6052 20.0652C22.3234 19.7822 22.1095 19.4385 21.9795 19.0601C21.8495 18.6817 21.8069 18.2784 21.8548 17.881C21.8548 15.6007 23.1117 13.9521 24.86 13.9521C25.1731 13.9347 25.4862 13.9852 25.7781 14.1002C26.07 14.2152 26.3339 14.3921 26.5517 14.6187C26.7696 14.8454 26.9364 15.1166 27.0407 15.4138C27.145 15.711 27.1844 16.0273 27.1563 16.3412C27.15 16.8867 27.0858 17.4301 26.9647 17.9619H23.5485C23.5292 18.0334 23.5202 18.1073 23.5217 18.1814C23.5217 18.9498 24.041 19.3341 25.0238 19.3341C25.639 19.3327 26.2461 19.1922 26.7999 18.9229L26.5279 20.5715ZM25.5162 16.6446V16.3143C25.5304 16.2015 25.5191 16.0869 25.4834 15.979C25.4477 15.8712 25.3883 15.7728 25.3097 15.691C25.2311 15.6092 25.1353 15.5462 25.0293 15.5066C24.9233 15.4669 24.8098 15.4518 24.6972 15.462C24.1511 15.462 23.7679 15.8732 23.6051 16.6446H25.5162ZM8.11366 20.7092H6.41798L7.40282 14.474L5.1899 20.7092H4.01545L3.87844 14.502L2.84 20.7092H1.1731L2.51136 12.6069H4.9983L5.05193 17.6056L6.7188 12.6069H9.45096L8.11366 20.7092ZM12.2387 17.7703C12.1304 17.7499 12.0203 17.7408 11.9101 17.7433C10.9272 17.7433 10.4348 18.1276 10.4348 18.7313C10.4258 18.8191 10.4354 18.9078 10.4631 18.9916C10.4908 19.0754 10.5359 19.1524 10.5954 19.2173C10.655 19.2822 10.7276 19.3337 10.8084 19.3682C10.8892 19.4028 10.9764 19.4198 11.0642 19.4179C11.8833 19.4209 12.2109 18.7293 12.2387 17.7723V17.7703ZM13.6058 20.7092H12.1305L12.1573 20.0216C11.9507 20.2998 11.676 20.5196 11.3599 20.6595C11.0438 20.7994 10.6971 20.8547 10.3534 20.82C10.1337 20.804 9.91938 20.7443 9.72297 20.6441C9.52656 20.5438 9.35202 20.4052 9.20955 20.2364C9.06708 20.0675 8.95956 19.8718 8.89328 19.6607C8.82699 19.4495 8.80326 19.2272 8.8235 19.0067C8.82675 18.7182 8.87226 18.4317 8.95854 18.1564C9.23255 17.1395 10.2422 16.5089 11.8009 16.4809C11.9925 16.4809 12.2913 16.4809 12.5653 16.5079C12.6056 16.3651 12.624 16.2171 12.6199 16.0688C12.6199 15.6277 12.2645 15.4899 11.4733 15.4899C10.9907 15.4875 10.5108 15.5623 10.0516 15.7115L9.80638 15.7664L9.69616 15.7933L9.94339 14.3104C10.5853 14.086 11.2585 13.9655 11.9379 13.9531C13.4112 13.9531 14.2054 14.6407 14.2054 15.9041C14.2224 16.336 14.1945 16.7684 14.122 17.1944L13.7398 19.5546L13.6862 19.9677L13.6594 20.298L13.6326 20.5176L13.6058 20.7092ZM34.7779 14.1717C35.3165 14.1903 35.8422 14.3418 36.3088 14.6128L36.6066 12.8544C36.4642 12.7914 36.3184 12.7364 36.1698 12.6897L35.4858 12.4971C34.5967 12.3308 33.6791 12.4168 32.836 12.7456C32.462 12.9921 32.1219 13.2871 31.8244 13.6228L31.606 13.5679L29.8587 14.8044L29.9401 14.1168H28.1362L27.0719 20.7032H28.7924L29.4199 17.1625C29.4199 17.1625 29.6671 16.6635 29.7753 16.5029C29.8812 16.3522 30.0267 16.234 30.1955 16.1614C30.3642 16.0888 30.5497 16.0647 30.7313 16.0917H30.8683C30.8113 16.5097 30.7841 16.9312 30.7869 17.3531C30.7869 19.4957 31.9882 20.8459 33.8457 20.8459C34.3547 20.8427 34.8609 20.7689 35.3498 20.6264L35.6476 18.7592C35.2089 19.025 34.7109 19.176 34.1991 19.1983C33.1895 19.1983 32.5888 18.4299 32.5888 17.2224C32.5918 15.4361 33.4933 14.1737 34.7779 14.1737V14.1717ZM49.2865 12.6069L48.9043 14.9131C48.7522 14.6309 48.5271 14.3952 48.2527 14.2309C47.9784 14.0667 47.6649 13.98 47.3456 13.98C46.8653 13.9946 46.3985 14.1437 45.9979 14.4104C45.5973 14.6772 45.2788 15.051 45.0781 15.4899V15.463L43.986 14.8054L44.0962 14.1178H42.2655L41.2271 20.7102H42.9208L43.4946 17.1675C43.4946 17.1675 43.9334 16.6685 44.0406 16.5079C44.1323 16.3894 44.2478 16.2916 44.3795 16.2207C44.5111 16.1499 44.6561 16.1077 44.8051 16.0967C44.5993 16.7254 44.4987 17.384 44.5072 18.0457C44.5072 19.6933 45.3531 20.7921 46.6099 20.7921C46.9135 20.7988 47.2145 20.7354 47.4899 20.6068C47.7653 20.4783 48.0077 20.288 48.1984 20.0506L48.115 20.7102H49.7273L51.0388 12.6079L49.2865 12.6069ZM47.1818 19.1424C46.608 19.1424 46.3092 18.7033 46.3092 17.8521C46.3092 16.5607 46.8552 15.6277 47.6474 15.6277C48.2431 15.6277 48.5489 16.0957 48.5489 16.918C48.5479 18.2383 48.0018 19.1454 47.1808 19.1454L47.1818 19.1424ZM39.2871 17.7703C39.1788 17.7499 39.0687 17.7408 38.9585 17.7433C37.9737 17.7433 37.4833 18.1276 37.4833 18.7313C37.4741 18.819 37.4836 18.9076 37.5111 18.9913C37.5386 19.075 37.5836 19.1519 37.6429 19.2169C37.7022 19.2818 37.7746 19.3333 37.8553 19.3679C37.9359 19.4026 38.023 19.4196 38.1107 19.4179C38.9317 19.4209 39.2594 18.7293 39.2871 17.7723V17.7703ZM40.6522 20.7092H39.1501L39.2077 20.0266C39.0015 20.3047 38.7271 20.5243 38.4113 20.6642C38.0956 20.8041 37.7492 20.8595 37.4058 20.825C37.1814 20.8157 36.9612 20.7608 36.7584 20.6636C36.5557 20.5664 36.3746 20.429 36.2262 20.2595C36.0777 20.0901 35.965 19.8921 35.8947 19.6777C35.8245 19.4632 35.7981 19.2366 35.8174 19.0117C35.8174 17.4469 36.9918 16.4859 38.8494 16.4859C39.0955 16.4823 39.3417 16.4913 39.587 16.5129C39.6346 16.371 39.6626 16.2233 39.6704 16.0738C39.6704 15.6327 39.315 15.4969 38.4959 15.4969C38.0136 15.496 37.534 15.5701 37.0743 15.7165L36.8558 15.7714L36.7456 15.7983L36.9908 14.3154C37.6328 14.0914 38.3059 13.9708 38.9854 13.9581C40.4606 13.9581 41.2251 14.6457 41.2251 15.9091C41.2573 16.3409 41.23 16.7752 41.1437 17.1994L40.7883 19.5616L40.7346 19.9727L40.679 20.303L40.6522 20.5226V20.7152V20.7092ZM17.1838 15.5199C17.6138 15.5222 18.0431 15.5586 18.4674 15.6287L18.7126 14.0908C18.2222 14.037 17.566 13.9531 17.1828 13.9531C15.2707 13.9531 14.6412 14.998 14.6412 16.2045C14.6348 16.605 14.756 16.997 14.9871 17.3233C15.2183 17.6496 15.5473 17.8929 15.9259 18.0178C16.6099 18.3481 16.7201 18.402 16.7201 18.7054C16.7201 19.1165 16.3667 19.363 15.7105 19.363C15.1791 19.3636 14.6516 19.271 14.1518 19.0895L13.9602 20.5994L13.987 20.6264L14.3156 20.6813C14.4604 20.7167 14.6068 20.7447 14.7544 20.7651C15.1634 20.792 15.5189 20.819 15.7373 20.819C17.6494 20.819 18.4426 20.0775 18.4426 18.6235C18.4547 18.2187 18.336 17.8209 18.1045 17.4896C17.8729 17.1583 17.5408 16.9112 17.158 16.7853C16.4203 16.455 16.3369 16.4011 16.3369 16.0977C16.3369 15.7943 16.6645 15.5209 17.1838 15.5209V15.5199Z" fill="#082C5C" stroke="#A4A4A3" stroke-width="2" mask="url(#path-7-inside-3_1_1594)"/>
<mask id="path-8-inside-4_1_1594" fill="white">
<path fill-rule="evenodd" clip-rule="evenodd" d="M37.0783 12.3335L36.7804 14.0919C36.3141 13.8214 35.7887 13.6706 35.2506 13.6528C33.9659 13.6528 33.0664 14.9142 33.0664 16.7005C33.0664 17.937 33.6621 18.6784 34.6787 18.6784C35.1856 18.653 35.6801 18.5124 36.1252 18.2673L35.8274 20.1055C35.34 20.2555 34.8348 20.339 34.3253 20.3539C32.4678 20.3539 31.3181 19.0068 31.3181 16.8382C31.3181 13.9532 32.9066 11.9214 35.1702 11.9214C35.4373 11.9167 35.704 11.9448 35.9644 12.0052L36.6484 12.1699C36.8688 12.2517 36.9224 12.2787 37.0872 12.3325L37.0783 12.3335ZM31.5594 13.5431H31.3956C30.8218 13.5431 30.4941 13.8185 29.9739 14.6148L30.1377 13.5979H28.579L27.5148 20.1903H29.2353C29.8647 16.1527 30.0295 15.4661 30.8476 15.4661H30.9578C31.0835 14.8056 31.3038 14.1669 31.612 13.57L31.5594 13.5431ZM21.6683 20.1055C21.2752 20.2519 20.8594 20.3269 20.4402 20.327C20.2491 20.3448 20.0565 20.3186 19.8769 20.2504C19.6974 20.1823 19.5356 20.074 19.4039 19.9337C19.2722 19.7934 19.1739 19.6248 19.1166 19.4407C19.0593 19.2566 19.0444 19.0618 19.0731 18.871C19.0791 18.6778 19.0974 18.4851 19.1277 18.2942L19.2379 17.6346L19.3213 17.1147L20.057 12.609H21.7526L21.561 13.5969H22.4337L22.2153 15.2176H21.3406L20.877 17.9639C20.856 18.0541 20.847 18.1467 20.8502 18.2393C20.8502 18.5677 21.014 18.7054 21.424 18.7054C21.5807 18.7194 21.7386 18.7007 21.8877 18.6505L21.6693 20.1044L21.6683 20.1055ZM15.0851 15.6856C15.08 16.0888 15.2011 16.4834 15.4312 16.8136C15.6614 17.1438 15.9891 17.393 16.3678 17.5258C17.0786 17.8541 17.1888 17.9649 17.1888 18.2383C17.1888 18.6515 16.891 18.8441 16.204 18.8441C15.6844 18.84 15.1685 18.7562 14.6741 18.5956L14.4289 20.1055L14.5103 20.1344L14.8081 20.1893C14.9596 20.2276 15.1155 20.2457 15.2718 20.2432C15.5797 20.2853 15.8903 20.304 16.201 20.2991C18.0049 20.2991 18.8527 19.6115 18.8527 18.1036C18.8787 17.7071 18.7752 17.3128 18.5581 16.9807C18.3409 16.6486 18.0219 16.3967 17.6495 16.2634C16.9118 15.9331 16.8304 15.8523 16.8304 15.5489C16.8304 15.1917 17.1282 15.027 17.6782 15.027C18.0889 15.0304 18.499 15.0584 18.9063 15.1108L19.1536 13.6009C18.6565 13.5161 18.1536 13.47 17.6495 13.4632C15.7334 13.4622 15.0523 14.4771 15.0811 15.6866L15.0851 15.6856ZM50.1652 20.1893H48.5529L48.6343 19.5566C48.4389 19.7854 48.1956 19.9681 47.9219 20.0916C47.6482 20.2151 47.3508 20.2764 47.0508 20.2712C45.7939 20.2712 44.9729 19.2013 44.9729 17.5538C44.9729 15.3583 46.2566 13.4892 47.7597 13.4892C48.0867 13.4908 48.408 13.5746 48.6946 13.7328C48.9812 13.8911 49.2239 14.1188 49.4007 14.3953L49.783 12.087H51.4737L50.1622 20.1893H50.1652ZM47.6505 18.6515C48.4447 18.6515 48.9887 17.7174 48.9887 16.4271C48.9887 15.5748 48.6909 15.1297 48.0873 15.1297C47.3228 15.1297 46.749 16.0359 46.749 17.3252C46.7464 18.2094 47.0459 18.6518 47.6475 18.6525L47.6505 18.6515ZM26.9141 20.0486C26.3406 20.2355 25.7409 20.3285 25.138 20.324C23.224 20.324 22.2411 19.3071 22.2411 17.3582C22.2411 15.1048 23.498 13.4293 25.2195 13.4293C25.5342 13.4098 25.8494 13.4587 26.1437 13.5727C26.4379 13.6866 26.7044 13.8629 26.9248 14.0895C27.1452 14.3162 27.3145 14.588 27.4211 14.8863C27.5277 15.1846 27.5691 15.5025 27.5426 15.8183C27.5379 16.3745 27.4645 16.9279 27.3242 17.4659H23.9348C23.9145 17.528 23.9054 17.5932 23.908 17.6585C23.908 18.4289 24.4272 18.8132 25.4101 18.8132C26.0269 18.8244 26.6369 18.6825 27.1862 18.4L26.9141 20.0486ZM25.9561 16.1217V15.7944C25.9703 15.6817 25.9591 15.5672 25.9233 15.4594C25.8876 15.3516 25.8282 15.2533 25.7496 15.1716C25.671 15.09 25.5751 15.0272 25.4691 14.9878C25.3631 14.9484 25.2496 14.9335 25.137 14.9442C24.591 14.9442 24.2078 15.3553 24.045 16.1247L25.9561 16.1217ZM8.55058 20.1853H6.85689L7.83974 13.9502L5.62685 20.1853H4.45237L4.31536 14.0071L3.27789 20.1853H1.68945L3.02772 12.0831H5.48784L5.56925 17.1087L7.20834 12.0831H9.88887L8.55058 20.1853ZM12.7858 17.2464C12.622 17.2464 12.5406 17.2194 12.4036 17.2194C11.4475 17.2194 10.9551 17.5767 10.9551 18.2344C10.9432 18.3186 10.9499 18.4044 10.9748 18.4857C10.9996 18.567 11.042 18.6418 11.0988 18.7048C11.1557 18.7677 11.2257 18.8174 11.3038 18.8501C11.3819 18.8828 11.4662 18.8978 11.5508 18.894C12.2666 18.899 12.755 18.2383 12.7858 17.2504V17.2464ZM14.0456 20.1853H12.624L12.6508 19.4977C12.4365 19.7672 12.1605 19.9805 11.8464 20.1196C11.5322 20.2586 11.1894 20.3191 10.8469 20.2961C10.6242 20.2932 10.4046 20.2432 10.2024 20.1495C10.0001 20.0557 9.81977 19.9203 9.67297 19.752C9.52618 19.5836 9.41625 19.3861 9.35031 19.1723C9.28437 18.9585 9.26387 18.7331 9.2902 18.5108C9.2902 16.8901 10.3823 15.956 12.2954 15.956C12.487 15.956 12.7342 15.983 13.0062 16.0109C13.0443 15.8773 13.0624 15.7387 13.0598 15.5998C13.0598 15.1607 12.762 15.001 11.9678 15.001C11.4895 14.9947 11.0124 15.05 10.5481 15.1657L10.3009 15.2475L10.1371 15.2765L10.3843 13.7935C11.0465 13.579 11.7376 13.4676 12.4334 13.4632C13.9087 13.4632 14.7009 14.1209 14.7009 15.3853C14.6906 15.8277 14.6448 16.2685 14.5639 16.7035L14.1817 19.0387L14.1271 19.4499L14.1002 19.7802L14.0735 20.0267L14.0466 20.1913L14.0456 20.1853ZM39.8372 17.2464C39.6456 17.2464 39.5632 17.2194 39.455 17.2194C38.4702 17.2194 37.9778 17.5767 37.9778 18.2344C37.9688 18.3209 37.9787 18.4083 38.0068 18.4906C38.0348 18.5729 38.0804 18.6481 38.1403 18.7108C38.2002 18.7736 38.273 18.8225 38.3537 18.8542C38.4343 18.8858 38.5208 18.8994 38.6072 18.894C39.2912 18.894 39.8084 18.2344 39.8372 17.2464ZM41.0941 20.1853H39.6724L39.6992 19.4977C39.4848 19.7671 39.2088 19.9803 38.8947 20.1193C38.5806 20.2583 38.2378 20.319 37.8954 20.2961C37.6727 20.2932 37.4531 20.2432 37.2508 20.1495C37.0486 20.0557 36.8682 19.9203 36.7214 19.752C36.5746 19.5836 36.4647 19.3861 36.3988 19.1723C36.3328 18.9585 36.3123 18.7331 36.3387 18.5108C36.3387 16.8901 37.4307 15.956 39.3438 15.956C39.5354 15.956 39.7807 15.983 40.0279 16.0109C40.0713 15.8776 40.0986 15.7396 40.1093 15.5998C40.1093 15.1607 39.8114 15.001 39.0172 15.001C38.5301 14.9948 38.0441 15.0501 37.5707 15.1657L37.3503 15.2475L37.1865 15.2765L37.4337 13.7935C38.096 13.579 38.787 13.4676 39.4828 13.4632C40.9581 13.4632 41.7226 14.1209 41.7226 15.3853C41.7265 15.8285 41.6806 16.2707 41.5855 16.7035L41.2301 19.0387L41.1765 19.4499L41.1219 19.7802L41.0951 20.0267V20.1913L41.0941 20.1853ZM45.6828 13.539H45.517C44.9451 13.539 44.6175 13.8145 44.0973 14.6109L44.2611 13.5939H42.7024L41.664 20.1863H43.3596C43.9871 16.1487 44.1539 15.4621 44.9719 15.4621H45.0801C45.2056 14.8012 45.4267 14.1624 45.7364 13.566L45.6828 13.539Z"/>
</mask>
<path fill-rule="evenodd" clip-rule="evenodd" d="M37.0783 12.3335L36.7804 14.0919C36.3141 13.8214 35.7887 13.6706 35.2506 13.6528C33.9659 13.6528 33.0664 14.9142 33.0664 16.7005C33.0664 17.937 33.6621 18.6784 34.6787 18.6784C35.1856 18.653 35.6801 18.5124 36.1252 18.2673L35.8274 20.1055C35.34 20.2555 34.8348 20.339 34.3253 20.3539C32.4678 20.3539 31.3181 19.0068 31.3181 16.8382C31.3181 13.9532 32.9066 11.9214 35.1702 11.9214C35.4373 11.9167 35.704 11.9448 35.9644 12.0052L36.6484 12.1699C36.8688 12.2517 36.9224 12.2787 37.0872 12.3325L37.0783 12.3335ZM31.5594 13.5431H31.3956C30.8218 13.5431 30.4941 13.8185 29.9739 14.6148L30.1377 13.5979H28.579L27.5148 20.1903H29.2353C29.8647 16.1527 30.0295 15.4661 30.8476 15.4661H30.9578C31.0835 14.8056 31.3038 14.1669 31.612 13.57L31.5594 13.5431ZM21.6683 20.1055C21.2752 20.2519 20.8594 20.3269 20.4402 20.327C20.2491 20.3448 20.0565 20.3186 19.8769 20.2504C19.6974 20.1823 19.5356 20.074 19.4039 19.9337C19.2722 19.7934 19.1739 19.6248 19.1166 19.4407C19.0593 19.2566 19.0444 19.0618 19.0731 18.871C19.0791 18.6778 19.0974 18.4851 19.1277 18.2942L19.2379 17.6346L19.3213 17.1147L20.057 12.609H21.7526L21.561 13.5969H22.4337L22.2153 15.2176H21.3406L20.877 17.9639C20.856 18.0541 20.847 18.1467 20.8502 18.2393C20.8502 18.5677 21.014 18.7054 21.424 18.7054C21.5807 18.7194 21.7386 18.7007 21.8877 18.6505L21.6693 20.1044L21.6683 20.1055ZM15.0851 15.6856C15.08 16.0888 15.2011 16.4834 15.4312 16.8136C15.6614 17.1438 15.9891 17.393 16.3678 17.5258C17.0786 17.8541 17.1888 17.9649 17.1888 18.2383C17.1888 18.6515 16.891 18.8441 16.204 18.8441C15.6844 18.84 15.1685 18.7562 14.6741 18.5956L14.4289 20.1055L14.5103 20.1344L14.8081 20.1893C14.9596 20.2276 15.1155 20.2457 15.2718 20.2432C15.5797 20.2853 15.8903 20.304 16.201 20.2991C18.0049 20.2991 18.8527 19.6115 18.8527 18.1036C18.8787 17.7071 18.7752 17.3128 18.5581 16.9807C18.3409 16.6486 18.0219 16.3967 17.6495 16.2634C16.9118 15.9331 16.8304 15.8523 16.8304 15.5489C16.8304 15.1917 17.1282 15.027 17.6782 15.027C18.0889 15.0304 18.499 15.0584 18.9063 15.1108L19.1536 13.6009C18.6565 13.5161 18.1536 13.47 17.6495 13.4632C15.7334 13.4622 15.0523 14.4771 15.0811 15.6866L15.0851 15.6856ZM50.1652 20.1893H48.5529L48.6343 19.5566C48.4389 19.7854 48.1956 19.9681 47.9219 20.0916C47.6482 20.2151 47.3508 20.2764 47.0508 20.2712C45.7939 20.2712 44.9729 19.2013 44.9729 17.5538C44.9729 15.3583 46.2566 13.4892 47.7597 13.4892C48.0867 13.4908 48.408 13.5746 48.6946 13.7328C48.9812 13.8911 49.2239 14.1188 49.4007 14.3953L49.783 12.087H51.4737L50.1622 20.1893H50.1652ZM47.6505 18.6515C48.4447 18.6515 48.9887 17.7174 48.9887 16.4271C48.9887 15.5748 48.6909 15.1297 48.0873 15.1297C47.3228 15.1297 46.749 16.0359 46.749 17.3252C46.7464 18.2094 47.0459 18.6518 47.6475 18.6525L47.6505 18.6515ZM26.9141 20.0486C26.3406 20.2355 25.7409 20.3285 25.138 20.324C23.224 20.324 22.2411 19.3071 22.2411 17.3582C22.2411 15.1048 23.498 13.4293 25.2195 13.4293C25.5342 13.4098 25.8494 13.4587 26.1437 13.5727C26.4379 13.6866 26.7044 13.8629 26.9248 14.0895C27.1452 14.3162 27.3145 14.588 27.4211 14.8863C27.5277 15.1846 27.5691 15.5025 27.5426 15.8183C27.5379 16.3745 27.4645 16.9279 27.3242 17.4659H23.9348C23.9145 17.528 23.9054 17.5932 23.908 17.6585C23.908 18.4289 24.4272 18.8132 25.4101 18.8132C26.0269 18.8244 26.6369 18.6825 27.1862 18.4L26.9141 20.0486ZM25.9561 16.1217V15.7944C25.9703 15.6817 25.9591 15.5672 25.9233 15.4594C25.8876 15.3516 25.8282 15.2533 25.7496 15.1716C25.671 15.09 25.5751 15.0272 25.4691 14.9878C25.3631 14.9484 25.2496 14.9335 25.137 14.9442C24.591 14.9442 24.2078 15.3553 24.045 16.1247L25.9561 16.1217ZM8.55058 20.1853H6.85689L7.83974 13.9502L5.62685 20.1853H4.45237L4.31536 14.0071L3.27789 20.1853H1.68945L3.02772 12.0831H5.48784L5.56925 17.1087L7.20834 12.0831H9.88887L8.55058 20.1853ZM12.7858 17.2464C12.622 17.2464 12.5406 17.2194 12.4036 17.2194C11.4475 17.2194 10.9551 17.5767 10.9551 18.2344C10.9432 18.3186 10.9499 18.4044 10.9748 18.4857C10.9996 18.567 11.042 18.6418 11.0988 18.7048C11.1557 18.7677 11.2257 18.8174 11.3038 18.8501C11.3819 18.8828 11.4662 18.8978 11.5508 18.894C12.2666 18.899 12.755 18.2383 12.7858 17.2504V17.2464ZM14.0456 20.1853H12.624L12.6508 19.4977C12.4365 19.7672 12.1605 19.9805 11.8464 20.1196C11.5322 20.2586 11.1894 20.3191 10.8469 20.2961C10.6242 20.2932 10.4046 20.2432 10.2024 20.1495C10.0001 20.0557 9.81977 19.9203 9.67297 19.752C9.52618 19.5836 9.41625 19.3861 9.35031 19.1723C9.28437 18.9585 9.26387 18.7331 9.2902 18.5108C9.2902 16.8901 10.3823 15.956 12.2954 15.956C12.487 15.956 12.7342 15.983 13.0062 16.0109C13.0443 15.8773 13.0624 15.7387 13.0598 15.5998C13.0598 15.1607 12.762 15.001 11.9678 15.001C11.4895 14.9947 11.0124 15.05 10.5481 15.1657L10.3009 15.2475L10.1371 15.2765L10.3843 13.7935C11.0465 13.579 11.7376 13.4676 12.4334 13.4632C13.9087 13.4632 14.7009 14.1209 14.7009 15.3853C14.6906 15.8277 14.6448 16.2685 14.5639 16.7035L14.1817 19.0387L14.1271 19.4499L14.1002 19.7802L14.0735 20.0267L14.0466 20.1913L14.0456 20.1853ZM39.8372 17.2464C39.6456 17.2464 39.5632 17.2194 39.455 17.2194C38.4702 17.2194 37.9778 17.5767 37.9778 18.2344C37.9688 18.3209 37.9787 18.4083 38.0068 18.4906C38.0348 18.5729 38.0804 18.6481 38.1403 18.7108C38.2002 18.7736 38.273 18.8225 38.3537 18.8542C38.4343 18.8858 38.5208 18.8994 38.6072 18.894C39.2912 18.894 39.8084 18.2344 39.8372 17.2464ZM41.0941 20.1853H39.6724L39.6992 19.4977C39.4848 19.7671 39.2088 19.9803 38.8947 20.1193C38.5806 20.2583 38.2378 20.319 37.8954 20.2961C37.6727 20.2932 37.4531 20.2432 37.2508 20.1495C37.0486 20.0557 36.8682 19.9203 36.7214 19.752C36.5746 19.5836 36.4647 19.3861 36.3988 19.1723C36.3328 18.9585 36.3123 18.7331 36.3387 18.5108C36.3387 16.8901 37.4307 15.956 39.3438 15.956C39.5354 15.956 39.7807 15.983 40.0279 16.0109C40.0713 15.8776 40.0986 15.7396 40.1093 15.5998C40.1093 15.1607 39.8114 15.001 39.0172 15.001C38.5301 14.9948 38.0441 15.0501 37.5707 15.1657L37.3503 15.2475L37.1865 15.2765L37.4337 13.7935C38.096 13.579 38.787 13.4676 39.4828 13.4632C40.9581 13.4632 41.7226 14.1209 41.7226 15.3853C41.7265 15.8285 41.6806 16.2707 41.5855 16.7035L41.2301 19.0387L41.1765 19.4499L41.1219 19.7802L41.0951 20.0267V20.1913L41.0941 20.1853ZM45.6828 13.539H45.517C44.9451 13.539 44.6175 13.8145 44.0973 14.6109L44.2611 13.5939H42.7024L41.664 20.1863H43.3596C43.9871 16.1487 44.1539 15.4621 44.9719 15.4621H45.0801C45.2056 14.8012 45.4267 14.1624 45.7364 13.566L45.6828 13.539Z" fill="white" stroke="#A4A4A3" stroke-width="2" mask="url(#path-8-inside-4_1_1594)"/>
</svg>
