<svg width="55" height="16" viewBox="0 0 55 16" fill="none" xmlns="http://www.w3.org/2000/svg">
<path d="M7.04102 0.623535C7.36014 0.588991 7.67956 0.665139 7.93945 0.833496C8.1988 1.00157 8.37841 1.24842 8.4541 1.52295L9.28906 5.31104C7.71273 3.32308 5.40099 1.68329 2.43164 0.626465H7.01465L7.04102 0.623535Z" fill="#F68A0A" stroke="#A4A4A3"/>
<path d="M25.8999 0.764893L23.2788 15.2727H19.8267L22.4409 0.764893H25.8999Z" fill="#004A89" stroke="#A4A4A3"/>
<path d="M19.4377 0.776367L12.8528 15.2578L8.80884 15.2598L5.32837 4.0127C7.34797 5.45946 9.00327 7.31498 10.1663 9.44922L10.6194 10.9932L11.0178 12.3545L11.5608 11.0439L15.8118 0.776367H19.4377Z" fill="#004A89" stroke="#A4A4A3"/>
<path d="M35.9062 0.5H35.9102C37.0767 0.491972 38.2359 0.658479 39.3457 0.990234L38.9268 3.30566C37.9924 2.95886 37.0037 2.7655 36.0029 2.7373L35.5596 2.73633C34.6242 2.73635 33.8865 2.9192 33.3643 3.23242C32.8455 3.54362 32.5007 4.01473 32.4971 4.55957C32.4869 5.18301 32.9061 5.61883 33.376 5.94434C33.8526 6.27444 34.5265 6.59144 35.2988 6.94434L35.3086 6.94824C37.82 8.02987 38.776 9.24304 38.7637 10.6963C38.7479 12.1282 38.0699 13.3071 36.8369 14.1455C35.589 14.9941 33.7585 15.4995 31.4766 15.5H31.4736C29.9745 15.5104 28.4859 15.2834 27.0664 14.8359L27.5049 12.4102C28.8896 13.0138 30.4026 13.3053 31.9248 13.2627L31.9238 13.2617C32.6135 13.2601 33.354 13.1354 33.9443 12.8457C34.539 12.5539 35.0731 12.0401 35.082 11.2559L35.0811 11.2549C35.0885 10.7287 34.8477 10.3048 34.4023 9.93457C33.9815 9.58472 33.3424 9.25032 32.4688 8.87012C31.6319 8.50387 30.7054 8.03304 29.9951 7.40527C29.2918 6.78362 28.8386 6.0444 28.8496 5.12207V5.12109C28.8625 3.8053 29.541 2.66839 30.7627 1.8418C31.9936 1.00917 33.771 0.500065 35.9062 0.5Z" fill="#004A89" stroke="#A4A4A3"/>
<path d="M46.7681 0.986084C47.0984 0.805154 47.4858 0.731232 47.8687 0.778076L47.8989 0.781982H50.9829L54.3696 15.2771H51.2476C51.2103 15.1152 51.1646 14.9156 51.1157 14.7048C50.9971 14.1932 50.8599 13.6075 50.7905 13.3318L50.6958 12.9539H50.3062L44.5806 12.948H44.2466L44.1187 13.2556C44.0298 13.4693 43.7945 14.0557 43.5835 14.5837C43.4794 14.8442 43.3798 15.0924 43.3062 15.2771H39.7329L46.0405 1.77612L46.0454 1.76538C46.1864 1.44291 46.4381 1.16685 46.7681 0.986084ZM47.769 4.28003C47.6604 4.56565 47.5083 4.94126 47.3853 5.2439C47.3459 5.34074 47.3081 5.43178 47.2769 5.50854L47.2759 5.50952L47.1782 5.74976L47.1772 5.75073V5.75269C47.1766 5.75428 47.1755 5.75653 47.1743 5.75952C47.1717 5.76604 47.1678 5.77615 47.1626 5.78882C47.1522 5.81421 47.1362 5.85134 47.1167 5.89917C47.0776 5.99502 47.0214 6.13323 46.9526 6.30151C46.8152 6.63806 46.6278 7.09599 46.4292 7.58179C46.0316 8.55416 45.5886 9.63669 45.4048 10.0808L45.1187 10.7722H50.2007L50.0581 10.1589C49.9685 9.77256 49.7109 8.65338 49.4751 7.63062C49.3572 7.11939 49.2444 6.63247 49.1616 6.27319C49.1202 6.09352 49.0867 5.94532 49.063 5.84253C49.0512 5.79152 49.0419 5.75162 49.0356 5.72437C49.0326 5.71094 49.0304 5.70014 49.0288 5.69312C49.0281 5.6899 49.0273 5.68707 49.0269 5.6853L49.0259 5.68237L48.7241 4.34741L48.3579 2.73022L47.769 4.28003Z" fill="#004A89" stroke="#A4A4A3"/>
</svg>
